<?xml version="1.0" standalone="no"?>
<!DOCTYPE svg PUBLIC "-//W3C//DTD SVG 20010904//EN"
 "http://www.w3.org/TR/2001/REC-SVG-20010904/DTD/svg10.dtd">
<svg version="1.0" xmlns="http://www.w3.org/2000/svg"
 width="350.000000pt" height="150.000000pt" viewBox="0 0 350.000000 150.000000"
 preserveAspectRatio="xMidYMid meet">

<g transform="translate(0.000000,150.000000) scale(0.100000,-0.100000)"
fill="#ffffff" stroke="none">
<path d="M272 938 c3 -354 4 -375 24 -418 23 -50 64 -89 128 -123 32 -17 58
-22 121 -22 96 0 144 21 213 95 l45 48 45 -49 c65 -73 110 -94 202 -94 41 0
92 7 114 14 49 17 111 73 139 125 21 40 22 53 25 419 l3 377 -34 0 -35 0 -7
-385 -7 -386 -42 -35 c-53 -46 -97 -64 -157 -64 -61 0 -96 13 -137 53 -66 63
-65 57 -76 455 l-9 362 -28 0 -27 0 -5 -337 c-3 -221 -9 -351 -16 -376 -15
-48 -72 -112 -122 -138 -80 -40 -191 -16 -242 53 -45 62 -48 86 -54 451 l-6
347 -29 0 -30 0 4 -372z"/>
<path d="M2760 845 l0 -465 30 0 30 0 0 160 c0 122 3 160 13 160 87 -3 224
-22 244 -35 38 -25 53 -74 53 -173 0 -93 12 -121 45 -108 12 4 15 27 15 118
-1 145 -16 183 -89 224 l-50 29 23 25 c29 30 136 204 136 219 0 18 -35 12 -64
-10 -15 -12 -49 -54 -75 -93 -27 -40 -65 -87 -85 -104 -33 -29 -43 -32 -101
-32 l-65 0 0 275 0 275 -30 0 -30 0 0 -465z"/>
<path d="M2260 993 c-67 -36 -115 -95 -129 -163 -6 -28 -11 -141 -11 -250 l0
-200 29 0 28 0 7 203 c9 243 15 275 67 321 73 67 161 69 233 5 64 -55 69 -80
74 -317 4 -212 5 -214 26 -208 11 3 27 6 34 6 19 0 11 407 -8 462 -32 90 -126
157 -235 165 -52 4 -67 1 -115 -24z"/>
<path d="M1472 793 c3 -202 5 -221 27 -265 27 -56 106 -131 153 -144 l33 -10
6 -129 c4 -72 7 -131 8 -132 4 -10 61 -1 62 10 1 6 4 65 8 130 l6 119 39 13
c47 16 98 64 134 125 27 45 27 47 30 273 l3 227 -29 0 -30 0 -5 -202 c-2 -112
-10 -219 -16 -239 -35 -114 -155 -161 -263 -102 -79 43 -82 54 -88 313 l-5
225 -39 3 -38 3 4 -218z"/>
</g>
</svg>
